<?xml version="1.0" encoding="utf-8"?>
<!-- Generator: Adobe Illustrator 22.0.0, SVG Export Plug-In . SVG Version: 6.00 Build 0)  -->
<svg version="1.1" id="Capa_1" xmlns="http://www.w3.org/2000/svg" xmlns:xlink="http://www.w3.org/1999/xlink" x="0px" y="0px"
	 viewBox="0 0 647 293.7" style="enable-background:new 0 0 647 293.7;" xml:space="preserve">
<g>
	<g>
		<path d="M462,70.8h-90L404,18.3c2.8-4.5,1.3-10.5-3.2-13.2c-4.5-2.8-10.5-1.3-13.2,3.2l-38.1,62.5h-23.7L287.7,8.3
			c-2.8-4.5-8.7-6-13.2-3.2c-4.5,2.8-6,8.7-3.2,13.2l31.9,52.4h-90c-11.6,0-21.1,9.5-21.1,21.1v174.3c0,11.6,9.5,21.1,21.1,21.1H462
			c11.6,0,21.1-9.5,21.1-21.1V91.9C483.1,80.2,473.7,70.8,462,70.8z M396.2,240.8c0,6.3-5.1,11.5-11.5,11.5H237.8
			c-6.3,0-11.5-5.1-11.5-11.5V117.2c0-6.3,5.1-11.5,11.5-11.5h146.9c6.3,0,11.5,5.1,11.5,11.5V240.8z M438.7,237.2
			c-11,0-19.9-8.9-19.9-19.9c0-11,8.9-19.9,19.9-19.9c11,0,19.9,8.9,19.9,19.9S449.7,237.2,438.7,237.2z M438.7,160.7
			c-11,0-19.9-8.9-19.9-19.9s8.9-19.9,19.9-19.9c11,0,19.9,8.9,19.9,19.9S449.7,160.7,438.7,160.7z"/>
	</g>
</g>
<g>
	<path d="M46,186.4l17,0.4c-1.1,8.8-4.2,15.6-9.1,20.3c-5,4.8-11.4,7.2-19.4,7.2c-8.1,0-14.9-2.7-20.4-8.2
		C8.6,200.8,5.9,194,5.9,186c0-8.1,2.8-14.9,8.4-20.5c5.6-5.5,12.4-8.3,20.6-8.3c8,0,14.7,2.7,20.1,8.1c3.7,3.8,6.4,9,7.9,15.7
		l-17.4,1.2c-1.9-6-5.6-8.9-11.1-8.9c-3.5,0-6.3,1.2-8.6,3.6c-2.2,2.4-3.4,5.4-3.4,9.1c0,3.6,1.1,6.5,3.3,8.8c2.2,2.3,5,3.5,8.4,3.5
		c3.4,0,6.2-1,8.2-3.1C44.5,193.2,45.7,190.3,46,186.4z"/>
	<path d="M86.8,158.6V213H70.6v-54.5H86.8z"/>
	<path d="M96.6,213v-35.4c0-6.2,1.9-11.2,5.6-14.9c3.7-3.7,8.7-5.6,14.8-5.6c6.1,0,10.8,1.8,14.1,5.4c3.3,3.6,4.9,8.8,4.9,15.6V213
		h-16.2v-34.8c0-3.3-1.2-5-3.6-5c-2.3,0-3.4,1.7-3.4,5V213H96.6z"/>
	<path d="M174.9,179.8v12.1h-10.6c-1.4,0-2.5,0.2-3.1,0.6c-0.6,0.4-0.9,1.1-0.9,2.2c0,1.1,0.3,1.9,0.9,2.3c0.6,0.4,1.9,0.5,3.8,0.5
		h10.9V213h-12.7c-6,0-10.6-1.4-13.7-4.3c-3.2-2.9-4.7-7-4.7-12.4V175c0-5.2,1.5-9.3,4.5-12.1c3-2.9,7.2-4.3,12.6-4.3h14.1v15.6
		h-10.3c-2.8,0-4.2,0.9-4.2,2.7c0,1.1,0.3,1.8,1,2.2c0.7,0.4,1.8,0.6,3.6,0.6H174.9z"/>
</g>
<g>
	<path d="M515.2,173.5v39.8H499v-54.5h20.8c6.3,0,11.2,1.6,14.7,4.7c3.9,3.5,5.8,8,5.8,13.4c0,5.5-2.4,10.1-7.2,13.9l9.3,22.5h-17
		l-7.9-17.6v-14h1.3c3.4,0,5.1-1.5,5.1-4.4c0-2.6-2-3.9-5.9-3.9H515.2z"/>
	<path d="M564.1,158.9v54.5h-16.2v-54.5H564.1z"/>
	<path d="M604,180v12.1h-10.6c-1.4,0-2.5,0.2-3.1,0.6c-0.6,0.4-0.9,1.1-0.9,2.2c0,1.1,0.3,1.9,0.9,2.3c0.6,0.4,1.9,0.5,3.8,0.5h10.9
		v15.6h-12.7c-6,0-10.6-1.4-13.7-4.3c-3.2-2.9-4.7-7-4.7-12.4v-21.3c0-5.2,1.5-9.3,4.5-12.1c3-2.9,7.2-4.3,12.6-4.3h14.1v15.6h-10.3
		c-2.8,0-4.2,0.9-4.2,2.7c0,1.1,0.3,1.8,1,2.2c0.7,0.4,1.8,0.6,3.6,0.6H604z"/>
	<path d="M639.9,158.6v15.5c-1.2-0.4-2.1-0.6-2.7-0.6c-1.2,0-2.3,0.5-3.2,1.4c-0.9,0.9-1.3,2-1.3,3.3c0,1.1,0.5,2.5,1.4,4.1l1.2,2.2
		c2.2,3.9,3.4,7.6,3.4,11.3c0,5.3-1.9,9.8-5.6,13.4c-3.8,3.7-8.4,5.5-13.8,5.5c-2.6,0-5.2-0.6-7.7-1.8v-15.8c1.5,1,2.9,1.5,4.1,1.5
		c1.4,0,2.6-0.4,3.5-1.2c0.9-0.8,1.4-1.8,1.4-3.1c0-0.8-0.8-2.5-2.3-5.2c-2.4-4.3-3.6-8.5-3.6-12.8c0-5.1,1.8-9.6,5.5-13.3
		c3.7-3.7,8-5.6,13.1-5.6C635.6,157.5,637.8,157.9,639.9,158.6z"/>
</g>
<g>
	<g>
		<path d="M372.8,213c-1.4-2.3-3.4-4.2-5.7-5.5l0,0c-2.5-1.4-5.3-2.2-8.2-2.2c-4.5,0.1-8.8,1.6-12.5,4.1c-3.5,2.2-7.2,3.7-11.2,4.7
			c-6.2,3-13,4.6-20,4.6c8.6,4.2,21.6,2.3,32.2,0.8l3.2-0.5c8.7-1.1,6.3,10.6,6.3,10.6c-0.2,1.1,0.5,2.1,1.6,2.3
			c0.4,0.1,0.8,0,1.2-0.2l14.6-7c0.8-0.3,1.3-1,1.3-1.9C375.6,219.4,374.6,216,372.8,213z"/>
	</g>
</g>
<g>
	<g>
		<path d="M314.7,125.9c-24.9,0-45.1,20.2-45.1,45.1c0,24.9,20.2,45.1,45.1,45.1c24.9,0,45.1-20.2,45.1-45.1
			C359.8,146.1,339.6,125.9,314.7,125.9z M291.6,181.7c-5.9,0-10.7-4.8-10.7-10.7c0,0,0,0,0,0c0-5.9,4.8-10.7,10.7-10.7
			c5.9,0,10.7,4.8,10.7,10.7C302.4,176.9,297.6,181.7,291.6,181.7z M314.6,204.8c-5.9,0-10.7-4.8-10.7-10.7s4.8-10.7,10.7-10.7
			s10.7,4.8,10.7,10.7S320.6,204.8,314.6,204.8z M311,171c0-2,1.6-3.6,3.6-3.6c2,0,3.6,1.6,3.6,3.6c0,2-1.6,3.6-3.6,3.6
			C312.6,174.6,311,173,311,171z M314.6,158.7c-5.9,0-10.7-4.8-10.7-10.7s4.8-10.7,10.7-10.7s10.7,4.8,10.7,10.7
			C325.4,153.9,320.6,158.7,314.6,158.7z M337.7,181.7c-5.9,0-10.7-4.8-10.8-10.7c0,0,0,0,0,0c0-5.9,4.8-10.7,10.7-10.7
			c5.9,0,10.7,4.8,10.8,10.7C348.4,176.9,343.6,181.7,337.7,181.7z"/>
	</g>
</g>
</svg>
